<svg xmlns="http://www.w3.org/2000/svg" xmlns:xlink="http://www.w3.org/1999/xlink" width="150" height="49" viewBox="0 0 150 49">
    <defs>
        <path id="a" d="M0 47.661h149.51V0H0z"/>
    </defs>
    <g fill="none" fill-rule="evenodd" transform="translate(.134 .605)">
        <path fill="#004785" d="M15.15 44.794c.043.176.113.335.21.475.096.141.221.254.376.339.154.085.342.127.564.127.222 0 .41-.042.565-.127.155-.085.28-.198.376-.339.097-.14.167-.299.21-.475a2.4 2.4 0 0 0 0-1.109 1.483 1.483 0 0 0-.21-.487 1.06 1.06 0 0 0-.376-.342 1.16 1.16 0 0 0-.565-.127c-.222 0-.41.042-.564.127-.155.085-.28.199-.377.342a1.494 1.494 0 0 0-.21.487 2.4 2.4 0 0 0-.066.566c0 .186.022.367.066.543zm-.901-1.466c.1-.284.244-.53.433-.742.188-.211.42-.377.693-.497.274-.12.583-.18.925-.18.348 0 .657.06.929.18s.502.286.69.497c.188.211.332.458.433.742.1.284.15.591.15.923 0 .323-.05.624-.15.904-.1.28-.245.522-.433.73-.188.207-.418.369-.69.487a2.311 2.311 0 0 1-.929.176c-.342 0-.651-.058-.925-.176a1.982 1.982 0 0 1-.693-.488 2.155 2.155 0 0 1-.433-.73c-.1-.279-.15-.58-.15-.903 0-.332.05-.639.15-.923zM18.741 43.828v-.59h.533v-.248c0-.286.09-.52.27-.703.18-.182.452-.273.816-.273.079 0 .159.003.238.01l.232.015v.659a2.77 2.77 0 0 0-.326-.019c-.122 0-.208.028-.26.084-.053.056-.079.15-.079.283v.192h.615v.59h-.615v2.622h-.89v-2.622h-.534z"/>
        <path fill="#004785" d="M20.717 43.828v-.59h.534v-.248c0-.286.09-.52.27-.703.18-.182.451-.273.815-.273.08 0 .16.003.238.01l.233.015v.659a2.77 2.77 0 0 0-.327-.019c-.121 0-.208.028-.26.084-.053.056-.078.15-.078.283v.192h.614v.59h-.614v2.622h-.891v-2.622h-.534z"/>
        <mask id="b" fill="#fff">
            <use xlink:href="#a"/>
        </mask>
        <path fill="#004785" d="M23.17 46.45h.892v-3.212h-.891v3.211zm0-3.709h.892v-.727h-.891v.727zM26.314 43.816a.633.633 0 0 0-.358.096.775.775 0 0 0-.236.248c-.06.102-.103.213-.128.336a1.73 1.73 0 0 0 0 .718c.025.12.066.228.123.326a.64.64 0 0 0 .58.333c.213 0 .377-.06.493-.178a.836.836 0 0 0 .216-.476h.86c-.06.427-.227.752-.503.976-.276.223-.63.336-1.06.336a1.8 1.8 0 0 1-.668-.122 1.478 1.478 0 0 1-.85-.857 1.787 1.787 0 0 1-.12-.662c0-.248.037-.479.11-.692.074-.214.182-.398.324-.553.142-.155.315-.277.52-.363.205-.088.44-.131.703-.131.192 0 .377.025.555.074.178.05.337.126.477.227.14.102.254.228.342.379.088.152.138.33.15.537h-.872c-.058-.368-.278-.552-.658-.552M28.39 46.45h.891v-3.212h-.89v3.211zm0-3.709h.891v-.727h-.89v.727zM32.004 44.878a.4.4 0 0 1-.141.078 1.548 1.548 0 0 1-.182.046 2.972 2.972 0 0 1-.204.031 4.51 4.51 0 0 0-.213.031 1.81 1.81 0 0 0-.198.05.607.607 0 0 0-.17.084.395.395 0 0 0-.115.134.418.418 0 0 0-.044.204c0 .08.014.145.044.2.029.053.069.095.119.127.05.03.108.053.175.064.067.013.136.02.208.02.175 0 .31-.03.407-.088a.586.586 0 0 0 .214-.208.665.665 0 0 0 .084-.245c.01-.083.016-.149.016-.2v-.328zm-2.058-.652c.013-.207.065-.379.157-.516s.209-.246.351-.329c.142-.083.302-.142.48-.177s.357-.053.537-.053c.163 0 .328.012.495.034.167.023.32.067.458.134a.9.9 0 0 1 .34.276c.087.118.13.275.13.47v1.67c0 .145.009.284.026.417a.745.745 0 0 0 .088.297h-.904a1.271 1.271 0 0 1-.062-.31 1.16 1.16 0 0 1-.502.304 2.03 2.03 0 0 1-.59.088c-.155 0-.3-.02-.433-.057a.986.986 0 0 1-.351-.173.815.815 0 0 1-.236-.299.999.999 0 0 1-.084-.429c0-.181.032-.332.097-.45a.808.808 0 0 1 .25-.282c.103-.07.22-.123.352-.159a3.73 3.73 0 0 1 .399-.083 6.64 6.64 0 0 1 .395-.05c.13-.012.245-.032.345-.056.1-.025.18-.061.238-.109.059-.047.086-.117.082-.208a.469.469 0 0 0-.047-.227.345.345 0 0 0-.126-.13.491.491 0 0 0-.182-.062 1.526 1.526 0 0 0-.222-.016c-.176 0-.314.038-.414.112-.1.074-.16.199-.176.373h-.89zM33.61 46.45h.891v-4.436h-.89zM38.792 44.101c.113 0 .222-.008.326-.025a.764.764 0 0 0 .276-.096.534.534 0 0 0 .192-.201.709.709 0 0 0 .072-.342.703.703 0 0 0-.072-.342.527.527 0 0 0-.192-.202.764.764 0 0 0-.276-.096 2.104 2.104 0 0 0-.326-.025h-.765v1.33h.765zm.27-2.086c.28 0 .518.04.715.12.196.081.357.188.48.32.124.133.213.284.27.454a1.675 1.675 0 0 1 0 1.053 1.226 1.226 0 0 1-.27.457 1.344 1.344 0 0 1-.48.32c-.197.08-.435.12-.715.12h-1.035v1.59h-.985v-4.434h2.02zM43.152 44.878a.4.4 0 0 1-.141.078 1.548 1.548 0 0 1-.182.046 2.972 2.972 0 0 1-.204.031 4.51 4.51 0 0 0-.213.031 1.81 1.81 0 0 0-.198.05.607.607 0 0 0-.17.084.395.395 0 0 0-.115.134.418.418 0 0 0-.044.204c0 .08.014.145.044.2.03.053.07.095.12.127.05.03.108.053.175.064.067.013.136.02.207.02.176 0 .311-.03.408-.088a.586.586 0 0 0 .213-.208.665.665 0 0 0 .084-.245c.011-.083.016-.149.016-.2v-.328zm-2.057-.652c.012-.207.064-.379.156-.516s.21-.246.352-.329c.142-.083.302-.142.48-.177.177-.035.357-.053.536-.053.163 0 .328.012.496.034.167.023.32.067.458.134a.9.9 0 0 1 .339.276c.087.118.131.275.131.47v1.67c0 .145.008.284.025.417a.745.745 0 0 0 .088.297h-.903a1.271 1.271 0 0 1-.063-.31 1.16 1.16 0 0 1-.502.304 2.03 2.03 0 0 1-.59.088c-.155 0-.299-.02-.432-.057a.986.986 0 0 1-.352-.173.815.815 0 0 1-.235-.299.999.999 0 0 1-.085-.429c0-.181.032-.332.097-.45a.808.808 0 0 1 .251-.282c.103-.07.22-.123.351-.159a3.73 3.73 0 0 1 .4-.083 6.64 6.64 0 0 1 .394-.05c.13-.012.245-.032.345-.056.1-.025.18-.061.239-.109.058-.047.085-.117.081-.208a.469.469 0 0 0-.047-.227.345.345 0 0 0-.125-.13.491.491 0 0 0-.182-.062 1.526 1.526 0 0 0-.223-.016c-.175 0-.313.038-.414.112-.1.074-.159.199-.175.373h-.891zM45.58 43.238v.597h.013a1.08 1.08 0 0 1 .414-.494c.092-.06.19-.107.295-.14.104-.033.213-.05.326-.05.058 0 .123.01.194.03v.821a1.658 1.658 0 0 0-.32-.03.969.969 0 0 0-.414.08.715.715 0 0 0-.272.22.875.875 0 0 0-.148.327c-.029.124-.044.258-.044.403v1.448h-.89v-3.212h.846zM48.955 43.238v.59h-.652v1.59c0 .15.025.249.075.299.05.05.15.074.301.074a1.484 1.484 0 0 0 .276-.025v.684c-.075.012-.158.02-.25.024a5.497 5.497 0 0 1-.27.007c-.138 0-.27-.01-.392-.029a.932.932 0 0 1-.327-.108.58.58 0 0 1-.223-.23.817.817 0 0 1-.081-.392v-1.894h-.54v-.59h.54v-.963h.89v.963h.653zM50.23 43.238v.447h.018a1.02 1.02 0 0 1 .44-.407c.179-.084.363-.127.551-.127.239 0 .434.032.586.097a.868.868 0 0 1 .361.266c.088.114.15.253.185.417.036.163.054.345.054.543v1.976h-.891v-1.814c0-.265-.042-.463-.125-.594-.084-.13-.233-.195-.446-.195-.243 0-.418.071-.527.214-.109.143-.163.378-.163.705v1.684h-.89v-3.212h.846zM55.063 43.99c-.107-.116-.27-.175-.486-.175a.783.783 0 0 0-.355.072.67.67 0 0 0-.345.4.981.981 0 0 0-.04.212h1.448c-.041-.223-.115-.393-.222-.51m-1.007 1.69c.134.129.326.193.577.193.18 0 .335-.045.464-.133.13-.09.21-.184.239-.283h.784c-.126.384-.318.66-.577.826-.26.166-.573.248-.941.248-.255 0-.486-.04-.69-.121a1.428 1.428 0 0 1-.521-.344 1.544 1.544 0 0 1-.33-.535 1.934 1.934 0 0 1-.116-.683c0-.24.04-.464.12-.67a1.568 1.568 0 0 1 .863-.895c.202-.087.427-.13.674-.13.276 0 .516.052.721.157.205.106.374.248.505.426.132.178.227.381.286.609.058.227.079.466.062.714h-2.34c.013.285.086.493.22.621M57.55 43.238v.597h.013a1.08 1.08 0 0 1 .414-.494c.092-.06.19-.107.295-.14.104-.033.213-.05.326-.05.058 0 .123.01.195.03v.821a1.658 1.658 0 0 0-.32-.03.969.969 0 0 0-.414.08.715.715 0 0 0-.273.22.875.875 0 0 0-.148.327c-.029.124-.044.258-.044.403v1.448h-.89v-3.212h.846zM61.716 45.223a.992.992 0 0 0 .129.33c.06.096.14.174.241.232.1.058.226.087.377.087a.76.76 0 0 0 .38-.087.678.678 0 0 0 .244-.233c.06-.098.103-.207.129-.33a1.866 1.866 0 0 0 0-.754.966.966 0 0 0-.129-.33.713.713 0 0 0-.244-.232.743.743 0 0 0-.38-.09c-.15 0-.276.03-.377.09-.1.06-.18.137-.241.233a.955.955 0 0 0-.129.329 1.906 1.906 0 0 0 0 .755m-.81-1.075c.08-.209.193-.387.34-.535.146-.146.322-.26.527-.34.204-.082.435-.122.69-.122.255 0 .486.04.693.121.207.08.383.195.53.341.147.148.26.326.339.535.08.21.119.442.119.699 0 .257-.04.488-.12.696-.078.207-.191.384-.338.53-.147.148-.323.26-.53.34a1.94 1.94 0 0 1-.693.117c-.255 0-.486-.04-.69-.118a1.486 1.486 0 0 1-.527-.338 1.505 1.505 0 0 1-.34-.531 1.933 1.933 0 0 1-.118-.696c0-.257.04-.49.119-.699M64.382 43.828v-.59h.534v-.248c0-.286.09-.52.27-.703.179-.182.451-.273.815-.273.08 0 .16.003.238.01l.233.015v.659a2.77 2.77 0 0 0-.327-.019c-.121 0-.208.028-.26.084-.053.056-.079.15-.079.283v.192h.615v.59h-.615v2.622h-.89v-2.622h-.534zM70.035 42.014l1.048 3.05h.012l.992-3.05h1.386v4.436h-.922v-3.143h-.013L71.44 46.45h-.759l-1.098-3.112h-.012v3.112h-.922v-4.436zM76.265 44.878a.4.4 0 0 1-.141.078 1.548 1.548 0 0 1-.182.046 2.972 2.972 0 0 1-.204.031 4.51 4.51 0 0 0-.213.031 1.81 1.81 0 0 0-.198.05.607.607 0 0 0-.17.084.395.395 0 0 0-.115.134.418.418 0 0 0-.044.204c0 .08.014.145.044.2.029.053.069.095.119.127.05.03.108.053.176.064.066.013.135.02.207.02.175 0 .311-.03.407-.088a.586.586 0 0 0 .214-.208.665.665 0 0 0 .084-.245c.011-.083.016-.149.016-.2v-.328zm-2.058-.652c.013-.207.065-.379.157-.516s.209-.246.352-.329c.142-.083.301-.142.48-.177.177-.035.356-.053.536-.053.163 0 .328.012.495.034.168.023.32.067.458.134a.9.9 0 0 1 .34.276c.087.118.131.275.131.47v1.67c0 .145.008.284.025.417a.745.745 0 0 0 .088.297h-.903a1.271 1.271 0 0 1-.063-.31 1.16 1.16 0 0 1-.502.304 2.03 2.03 0 0 1-.59.088c-.155 0-.3-.02-.433-.057a.986.986 0 0 1-.351-.173.815.815 0 0 1-.236-.299.999.999 0 0 1-.084-.429c0-.181.032-.332.097-.45a.808.808 0 0 1 .25-.282c.104-.07.22-.123.352-.159a3.73 3.73 0 0 1 .399-.083 6.64 6.64 0 0 1 .395-.05c.13-.012.245-.032.345-.056.1-.025.18-.061.239-.109.058-.047.085-.117.081-.208a.469.469 0 0 0-.047-.227.345.345 0 0 0-.126-.13.491.491 0 0 0-.182-.062 1.526 1.526 0 0 0-.222-.016c-.176 0-.314.038-.414.112-.1.074-.16.199-.176.373h-.89zM77.928 42.741h.89v-.727h-.89v.727zm-.345 4.106a.53.53 0 0 0 .241-.053c.069-.035.104-.112.104-.233v-3.323h.89v3.367c0 .165-.018.308-.053.429a.661.661 0 0 1-.182.3.8.8 0 0 1-.348.18 2.191 2.191 0 0 1-.84.035v-.727a.58.58 0 0 0 .188.025zM80.418 45.223a.992.992 0 0 0 .13.33c.06.096.14.174.24.232.1.058.226.087.377.087a.76.76 0 0 0 .38-.087.678.678 0 0 0 .244-.233c.06-.098.104-.207.129-.33a1.866 1.866 0 0 0 0-.754.966.966 0 0 0-.129-.33.713.713 0 0 0-.244-.232.743.743 0 0 0-.38-.09c-.15 0-.276.03-.377.09-.1.06-.18.137-.24.233a.955.955 0 0 0-.13.329 1.906 1.906 0 0 0 0 .755m-.81-1.075c.08-.209.193-.387.34-.535.146-.146.322-.26.527-.34.204-.082.435-.122.69-.122.255 0 .486.04.693.121.207.08.384.195.53.341.147.148.26.326.339.535.08.21.12.442.12.699 0 .257-.04.488-.12.696-.08.207-.192.384-.339.53-.146.148-.323.26-.53.34a1.94 1.94 0 0 1-.693.117c-.255 0-.486-.04-.69-.118a1.486 1.486 0 0 1-.527-.338 1.505 1.505 0 0 1-.34-.531 1.933 1.933 0 0 1-.118-.696c0-.257.04-.49.119-.699M84.27 43.238v.597h.013a1.08 1.08 0 0 1 .414-.494c.092-.06.19-.107.295-.14.104-.033.213-.05.326-.05.058 0 .123.01.194.03v.821a1.658 1.658 0 0 0-.32-.03.969.969 0 0 0-.414.08.715.715 0 0 0-.272.22.875.875 0 0 0-.148.327c-.029.124-.044.258-.044.403v1.448h-.89v-3.212h.846zM88.687 42.014v3.615h2.183v.82h-3.168v-4.435zM93.289 43.99c-.107-.116-.27-.175-.487-.175a.783.783 0 0 0-.354.072.67.67 0 0 0-.345.4.981.981 0 0 0-.041.212h1.45c-.042-.223-.117-.393-.223-.51m-1.007 1.69c.134.129.326.193.577.193.18 0 .335-.045.464-.133.13-.09.21-.184.238-.283h.785c-.126.384-.318.66-.578.826-.259.166-.573.248-.94.248-.256 0-.486-.04-.69-.121a1.428 1.428 0 0 1-.521-.344 1.544 1.544 0 0 1-.33-.535 1.934 1.934 0 0 1-.116-.683c0-.24.04-.464.12-.67a1.568 1.568 0 0 1 .862-.895c.203-.087.427-.13.674-.13.276 0 .517.052.722.157.205.106.373.248.505.426s.227.381.285.609c.06.227.08.466.063.714h-2.34c.013.285.086.493.22.621M96.95 44.878a.4.4 0 0 1-.142.078 1.548 1.548 0 0 1-.182.046 2.972 2.972 0 0 1-.203.031 4.51 4.51 0 0 0-.214.031 1.81 1.81 0 0 0-.198.05.607.607 0 0 0-.17.084.395.395 0 0 0-.115.134.418.418 0 0 0-.044.204c0 .08.014.145.044.2.03.053.07.095.12.127.05.03.108.053.175.064.067.013.136.02.207.02.176 0 .311-.03.408-.088a.586.586 0 0 0 .213-.208.665.665 0 0 0 .085-.245c.01-.083.016-.149.016-.2v-.328zm-2.058-.652c.012-.207.064-.379.157-.516.091-.137.208-.246.35-.329.143-.083.303-.142.481-.177.177-.035.357-.053.536-.053.163 0 .328.012.496.034.167.023.32.067.458.134a.9.9 0 0 1 .339.276c.087.118.131.275.131.47v1.67c0 .145.008.284.025.417a.745.745 0 0 0 .088.297h-.903a1.271 1.271 0 0 1-.063-.31 1.16 1.16 0 0 1-.502.304 2.03 2.03 0 0 1-.59.088c-.155 0-.299-.02-.432-.057a.986.986 0 0 1-.352-.173.815.815 0 0 1-.235-.299.999.999 0 0 1-.085-.429c0-.181.032-.332.097-.45a.808.808 0 0 1 .251-.282c.103-.07.22-.123.352-.159a3.73 3.73 0 0 1 .398-.083 6.64 6.64 0 0 1 .395-.05c.13-.012.245-.032.346-.056.1-.025.18-.061.238-.109.058-.047.085-.117.082-.208a.469.469 0 0 0-.048-.227.345.345 0 0 0-.125-.13.491.491 0 0 0-.182-.062 1.526 1.526 0 0 0-.223-.016c-.175 0-.313.038-.414.112-.1.074-.159.199-.175.373h-.891zM100.375 45.617a.69.69 0 0 0 .238-.2.884.884 0 0 0 .142-.281c.03-.106.046-.216.046-.333a1.8 1.8 0 0 0-.037-.375.941.941 0 0 0-.126-.314.647.647 0 0 0-.232-.217.735.735 0 0 0-.364-.081.662.662 0 0 0-.322.074.673.673 0 0 0-.226.203.842.842 0 0 0-.133.29c-.026.111-.04.226-.04.346 0 .116.011.23.034.344a.92.92 0 0 0 .12.308.634.634 0 0 0 .568.31.715.715 0 0 0 .332-.074m1.22 1.069a1.08 1.08 0 0 1-.229.462 1.352 1.352 0 0 1-.508.363c-.222.1-.518.15-.89.15-.16 0-.322-.02-.487-.059-.165-.04-.316-.1-.452-.184a1.104 1.104 0 0 1-.339-.32.923.923 0 0 1-.153-.468h.884c.042.165.123.28.245.344a.883.883 0 0 0 .42.097c.251 0 .434-.075.55-.224a.874.874 0 0 0 .165-.565v-.423h-.012a.885.885 0 0 1-.411.377 1.35 1.35 0 0 1-.561.12c-.243 0-.452-.042-.628-.127-.176-.084-.32-.2-.433-.347a1.447 1.447 0 0 1-.247-.516 2.416 2.416 0 0 1-.079-.625c0-.207.03-.406.091-.599.06-.193.15-.362.267-.51.117-.146.262-.263.435-.35.174-.087.374-.13.6-.13.213 0 .4.039.562.117.16.079.295.211.404.398h.012v-.429h.847v3.007c0 .128-.017.275-.053.44M104.56 46.45v-.448h-.02a1 1 0 0 1-.439.404c-.18.083-.364.125-.552.125a1.58 1.58 0 0 1-.586-.093.85.85 0 0 1-.361-.265 1.025 1.025 0 0 1-.185-.417 2.531 2.531 0 0 1-.054-.542v-1.976h.891v1.814c0 .265.042.463.126.593.084.13.232.196.445.196.243 0 .418-.072.527-.214.11-.143.163-.378.163-.706v-1.683h.891v3.211h-.847zM108.044 43.99c-.106-.116-.269-.175-.486-.175a.783.783 0 0 0-.354.072.67.67 0 0 0-.345.4.981.981 0 0 0-.041.212h1.449c-.042-.223-.116-.393-.223-.51m-1.007 1.69c.134.129.326.193.577.193.18 0 .335-.045.465-.133.13-.09.209-.184.238-.283h.784c-.125.384-.317.66-.577.826-.259.166-.573.248-.941.248-.255 0-.485-.04-.69-.121a1.428 1.428 0 0 1-.52-.344 1.544 1.544 0 0 1-.33-.535 1.934 1.934 0 0 1-.116-.683c0-.24.04-.464.119-.67a1.568 1.568 0 0 1 .863-.895c.202-.087.427-.13.674-.13.276 0 .517.052.722.157.204.106.373.248.505.426s.226.381.285.609c.059.227.08.466.063.714h-2.34c.012.285.086.493.22.621M113.562 45.692c.096 0 .188-.01.276-.029a.673.673 0 0 0 .232-.093.463.463 0 0 0 .16-.177c.04-.074.06-.169.06-.285 0-.228-.065-.39-.195-.488-.13-.097-.3-.146-.514-.146h-1.073v1.218h1.054zm-.056-1.883c.175 0 .32-.04.433-.124.112-.082.169-.217.169-.404a.511.511 0 0 0-.057-.254.417.417 0 0 0-.15-.155.657.657 0 0 0-.217-.078 1.484 1.484 0 0 0-.254-.022h-.922v1.037h.998zm.125-1.795c.213 0 .408.019.584.056.175.037.326.099.451.183a.86.86 0 0 1 .292.339c.069.141.104.315.104.522 0 .223-.052.41-.154.559-.103.149-.254.27-.455.366.276.08.482.217.618.414.136.196.204.433.204.71 0 .224-.044.418-.132.582a1.128 1.128 0 0 1-.355.4c-.148.103-.317.18-.508.23-.19.05-.385.074-.586.074h-2.17v-4.435h2.107zM117.866 44.878a.4.4 0 0 1-.141.078 1.548 1.548 0 0 1-.182.046 2.972 2.972 0 0 1-.204.031 4.51 4.51 0 0 0-.213.031 1.81 1.81 0 0 0-.198.05.607.607 0 0 0-.17.084.395.395 0 0 0-.115.134.418.418 0 0 0-.044.204c0 .08.014.145.044.2.029.053.069.095.119.127.05.03.108.053.176.064.066.013.135.02.207.02.175 0 .311-.03.407-.088a.586.586 0 0 0 .214-.208.665.665 0 0 0 .084-.245c.011-.083.016-.149.016-.2v-.328zm-2.058-.652c.013-.207.065-.379.157-.516s.209-.246.352-.329c.142-.083.301-.142.48-.177.177-.035.356-.053.536-.053.163 0 .328.012.495.034.168.023.32.067.458.134a.9.9 0 0 1 .34.276c.087.118.131.275.131.47v1.67c0 .145.008.284.025.417a.745.745 0 0 0 .088.297h-.903a1.271 1.271 0 0 1-.063-.31 1.16 1.16 0 0 1-.502.304 2.03 2.03 0 0 1-.59.088c-.155 0-.3-.02-.433-.057a.986.986 0 0 1-.351-.173.815.815 0 0 1-.236-.299.999.999 0 0 1-.084-.429c0-.181.032-.332.097-.45a.808.808 0 0 1 .25-.282c.104-.07.22-.123.352-.159a3.73 3.73 0 0 1 .399-.083 6.64 6.64 0 0 1 .395-.05c.13-.012.245-.032.345-.056.1-.025.18-.061.239-.109.058-.047.085-.117.081-.208a.469.469 0 0 0-.047-.227.345.345 0 0 0-.126-.13.491.491 0 0 0-.182-.062 1.526 1.526 0 0 0-.222-.016c-.176 0-.314.038-.414.112-.1.074-.16.199-.176.373h-.89zM120.197 45.651c.04.069.09.125.154.168a.66.66 0 0 0 .216.097 1.044 1.044 0 0 0 .452.008.664.664 0 0 0 .188-.068.43.43 0 0 0 .14-.124.325.325 0 0 0 .057-.196c0-.132-.089-.231-.266-.297a5.375 5.375 0 0 0-.744-.2 4.106 4.106 0 0 1-.38-.103 1.288 1.288 0 0 1-.328-.154.758.758 0 0 1-.233-.243.687.687 0 0 1-.088-.357c0-.207.041-.377.123-.51a.9.9 0 0 1 .323-.313c.134-.076.284-.13.451-.161a2.816 2.816 0 0 1 1.026.003c.166.033.313.089.442.167.13.08.238.184.324.314.085.13.137.295.153.494h-.846c-.013-.17-.078-.285-.195-.345a.905.905 0 0 0-.414-.09c-.05 0-.105.003-.163.01a.556.556 0 0 0-.16.04.33.33 0 0 0-.123.09.236.236 0 0 0-.05.159c0 .078.03.142.088.192.059.05.135.09.23.121.093.031.201.06.322.084.121.025.245.052.37.08.13.03.256.065.38.107.123.04.233.096.33.164a.797.797 0 0 1 .231.255.739.739 0 0 1 .088.375c0 .211-.043.388-.128.531a1.03 1.03 0 0 1-.336.346 1.4 1.4 0 0 1-.474.183 2.805 2.805 0 0 1-1.095-.004c-.18-.037-.339-.1-.48-.186a1.065 1.065 0 0 1-.344-.345 1.074 1.074 0 0 1-.148-.537h.847c0 .095.02.177.06.245M124.777 43.99c-.107-.116-.27-.175-.487-.175a.783.783 0 0 0-.354.072.67.67 0 0 0-.345.4.981.981 0 0 0-.041.212h1.449c-.042-.223-.116-.393-.222-.51m-1.008 1.69c.134.129.327.193.577.193.18 0 .335-.045.465-.133.13-.09.209-.184.238-.283h.784c-.125.384-.317.66-.577.826-.259.166-.573.248-.94.248-.256 0-.486-.04-.691-.121a1.428 1.428 0 0 1-.52-.344 1.544 1.544 0 0 1-.33-.535 1.934 1.934 0 0 1-.116-.683c0-.24.04-.464.119-.67a1.568 1.568 0 0 1 .863-.895c.202-.087.427-.13.674-.13.276 0 .517.052.722.157.204.106.373.248.505.426s.226.381.285.609c.059.227.08.466.063.714h-2.34c.012.285.086.493.22.621M128.75 44.456a1.004 1.004 0 0 0-.137-.33.723.723 0 0 0-.235-.226.66.66 0 0 0-.342-.085.663.663 0 0 0-.578.312 1.004 1.004 0 0 0-.138.329c-.03.124-.044.254-.044.39 0 .134.015.261.044.386.03.124.076.234.138.329a.663.663 0 0 0 .577.311.66.66 0 0 0 .343-.084.723.723 0 0 0 .235-.227c.063-.095.109-.205.138-.329a1.707 1.707 0 0 0 0-.776zm-1.442-2.441v1.614h.012a.947.947 0 0 1 .443-.363c.186-.076.38-.115.58-.115a1.25 1.25 0 0 1 .913.404c.127.136.231.311.31.525.08.213.12.467.12.76 0 .295-.04.548-.12.762-.079.213-.183.388-.31.525a1.234 1.234 0 0 1-.913.404c-.238 0-.452-.038-.64-.112a.809.809 0 0 1-.427-.38h-.012v.41h-.847v-4.434h.89zM132.27 44.878a.4.4 0 0 1-.141.078 1.548 1.548 0 0 1-.182.046 2.972 2.972 0 0 1-.204.031 4.51 4.51 0 0 0-.213.031 1.81 1.81 0 0 0-.198.05.607.607 0 0 0-.17.084.395.395 0 0 0-.115.134.418.418 0 0 0-.044.204c0 .08.014.145.044.2.029.053.069.095.12.127.05.03.108.053.175.064.067.013.136.02.207.02.176 0 .311-.03.408-.088a.586.586 0 0 0 .213-.208.665.665 0 0 0 .084-.245c.011-.083.016-.149.016-.2v-.328zm-2.057-.652c.012-.207.064-.379.156-.516s.21-.246.352-.329c.142-.083.301-.142.48-.177.177-.035.356-.053.536-.053.163 0 .328.012.496.034.167.023.32.067.458.134a.9.9 0 0 1 .338.276c.088.118.132.275.132.47v1.67c0 .145.008.284.025.417a.745.745 0 0 0 .088.297h-.903a1.271 1.271 0 0 1-.063-.31 1.16 1.16 0 0 1-.502.304 2.03 2.03 0 0 1-.59.088c-.155 0-.3-.02-.433-.057a.986.986 0 0 1-.35-.173.815.815 0 0 1-.236-.299.999.999 0 0 1-.085-.429c0-.181.032-.332.097-.45a.808.808 0 0 1 .251-.282c.103-.07.22-.123.351-.159a3.73 3.73 0 0 1 .4-.083 6.64 6.64 0 0 1 .394-.05c.13-.012.245-.032.345-.056.1-.025.18-.061.239-.109.058-.047.085-.117.081-.208a.469.469 0 0 0-.047-.227.345.345 0 0 0-.125-.13.491.491 0 0 0-.182-.062 1.526 1.526 0 0 0-.223-.016c-.176 0-.314.038-.414.112-.1.074-.159.199-.176.373h-.89zM133.876 46.45h.891v-4.436h-.89zM135.495 46.45h.89v-4.436h-.89z" mask="url(#b)"/>
        <path fill="#FEFEFE" d="M144.945 3.951a3.376 3.376 0 0 0-2.391-.98H90.557c-.904 0-1.753.348-2.392.98a3.31 3.31 0 0 0-.99 2.368v23.02c0 .895.352 1.736.99 2.368.64.633 1.488.98 2.392.98h51.997c1.864 0 3.382-1.501 3.382-3.348V6.32c0-.894-.351-1.735-.991-2.368" mask="url(#b)"/>
        <path fill="#EC174C" d="M144.945 3.951a3.376 3.376 0 0 0-2.391-.98h-14.538l8.363 13.815.765.095.446.63v.6l.542.094.478.661.001.568.541.095s.542.567.542.599v1.292s1.18 1.072 2.23 1.482c.735.283.83 1.45 1.245 2.08.574.884 1.338 1.26 1.179 1.766-.382 1.356-1.782 3.628-3.087 3.754l-5.16.004v2.181h6.453c1.864 0 3.382-1.501 3.382-3.348V6.32c0-.894-.351-1.735-.991-2.368" mask="url(#b)"/>
        <path fill="#004785" d="M94.167 27.95c-1.283 0-2.323-1.028-2.324-2.298a2.31 2.31 0 0 1 2.32-2.3 2.31 2.31 0 0 1 2.324 2.297 2.309 2.309 0 0 1-2.32 2.3zM123.06 2.97H90.557c-.904 0-1.753.349-2.392.981a3.31 3.31 0 0 0-.99 2.368v23.02c0 .895.352 1.736.99 2.368.64.633 1.488.98 2.392.98h21.115c-.53-.873-1.125-1.866-1.308-2.168h-2.516c-.004-6.18 2.128-9.619 4.645-10.283.35-.063.19-1.766-.257-2.27 0 0-1.21.032-1.464-.03-.32-.095-.097-.41-.097-.41l1.178-2.524-.16-.694-4.363.002c-.064 0 3.597-2.493 3.597-2.493.188-6.56 6.973-7.068 11.082-4.358 2.422 1.607 2.615 4.76 2.424 6.968-.03.127-.636.032-.636.032s-.414 2.398.67 2.397l4.778-.003c1.943-.064 3.823 1.228 3.823 1.228l.476-1.64-10.483-13.47z" mask="url(#b)"/>
        <path fill="#EC174C" d="M148.285 31.7v-.255h.245c.105 0 .247 0 .247.114 0 .116-.073.141-.193.141h-.3zm.42.19c.188-.012.29-.118.29-.314 0-.28-.17-.322-.414-.322h-.52v1.057h.224v-.421h.186l.249.42h.244l-.26-.42zm-.215.915c.57 0 1.02-.452 1.02-1.018 0-.567-.45-1.018-1.02-1.018-.57 0-1.022.45-1.022 1.018 0 .566.452 1.018 1.022 1.018zm0-1.814c.44 0 .797.34.797.796a.79.79 0 0 1-.797.799.79.79 0 0 1-.798-.8c0-.456.356-.795.798-.795z" mask="url(#b)"/>
        <path fill="#004785" d="M79.178 32.769h1.188V3.052h-1.188z" mask="url(#b)"/>
        <path fill="#044DA1" d="M.019 22.852L7.504.019l23.062 7.41-7.485 22.833z" mask="url(#b)"/>
        <path stroke="#044DA1" stroke-width=".052" d="M.019 22.852L7.504.019l23.062 7.41-7.485 22.833z" mask="url(#b)"/>
        <path fill="#009ED9" d="M24.752 33.635L22.996 9.692l24.182-1.739 1.755 23.944z" mask="url(#b)"/>
        <path stroke="#009ED9" stroke-width=".052" d="M24.752 33.635L22.996 9.692l24.182-1.739 1.755 23.944z" mask="url(#b)"/>
        <path fill="#00AC7D" d="M45.878 29.28l2.66-23.86 24.098 2.633-2.66 23.861z" mask="url(#b)"/>
        <path stroke="#00AC7D" stroke-width=".052" d="M45.878 29.28l2.66-23.86 24.098 2.633-2.66 23.861z" mask="url(#b)"/>
        <path fill="#FEFEFE" d="M6.124 13.12h5.453c4.343 0 3.837 2.04 3.033 4.283-.803 2.245-1.755 4.285-6.098 4.285H3.06l3.065-8.569zm1.266 6.96h.748c1.454 0 1.765-.361 2.594-2.677.83-2.315.776-2.676-.68-2.676h-.747L7.39 20.08zM21.895 12.952c3.838 0 4.705 1.248 3.559 4.45-1.146 3.206-2.906 4.454-6.744 4.454-3.839 0-4.705-1.248-3.56-4.453 1.148-3.203 2.907-4.451 6.745-4.451m-2.644 7.392c1.15 0 1.495-.625 2.324-2.941.828-2.315.93-2.94-.221-2.94s-1.496.625-2.324 2.94c-.829 2.316-.93 2.94.221 2.94M32.758 12.952c3.837 0 4.704 1.248 3.559 4.45-1.146 3.206-2.907 4.454-6.744 4.454-3.838 0-4.705-1.248-3.558-4.453 1.145-3.203 2.904-4.451 6.743-4.451m-2.644 7.392c1.15 0 1.495-.625 2.323-2.941.829-2.315.931-2.94-.22-2.94-1.152 0-1.496.625-2.324 2.94-.83 2.316-.93 2.94.22 2.94M43.3 15.592l.072-.205c.18-.503-.013-.924-.74-.924-.808 0-1.305.373-1.442.757-.606 1.691 5.832.864 4.712 3.996-.653 1.823-2.743 2.64-6.056 2.64-3.11 0-4.62-.636-3.985-2.413l.107-.299h3.637l-.073.204c-.263.731.148.996.875.996.768 0 1.34-.36 1.51-.828.603-1.693-5.595-.853-4.509-3.889.618-1.727 2.513-2.675 5.684-2.675 3.272 0 4.378.804 3.722 2.64H43.3zM51.363 13.12h4.728l.45 8.568h-4l.152-1.5h-2.99l-.92 1.5h-4l6.58-8.569zm1.757 1.751h-.04l-2.331 3.637h2.1l.271-3.637zM60.07 13.12h4.2l.537 5.28h.039l1.89-5.28h3.514l-3.065 8.568h-4.12l-.612-5.292h-.04l-1.894 5.292h-3.514z" mask="url(#b)"/>
    </g>
</svg>
